# xmcd
#
# Track frame offsets: 
#        180
#        14574
#        29861
#        44993
#        58153
#        72094
#        85545
#        99635
#        113225
#        125939
#        140246
#        153531
#        167203
#        180444
#        193313
#        219754
#        232631
#        246217
#
# Disc length: 3450 seconds
#
# Revision: 0
# Processed by: cddbd v1.4PL0 Copyright (c) Steve Scherf et al.
# Submitted via: ExactAudioCopy v0.95a3
#
DISCID=0f0d7812
DTITLE=Various Artist - Negro Spirituals - Gospel Songs 1926-1942 Disc1
DYEAR=1993
DGENRE=Gospel
TTITLE0=Blind Willie Johnson - Let Your Light Shine On Me
TTITLE1=Blind Willie Johnson - Mother's Children Have A Hard Time
TTITLE2=Arizona Dranes - I'll Go Where You Want Me To Do
TTITLE3=Rev. Rice D.C. - He's Got His Eyes On You
TTITLE4=Rev. J. M. Gates - The Need Of Prayer
TTITLE5=Rev. J. C. Burnett - True Friendship
TTITLE6=Sister Cally Fancy - Goin' On To Heaven In The Sanctified Way
TTITLE7=Holy Ghost Sanctified Singers - Thou Carest Lord For Me
TTITLE8=Mitchell's Christian Singers - Sign Of The Judgement
TTITLE9=Washington Phillips - Take Your Burden To The Lord...
TTITLE10=Rev. Edward Clayburn - Then We'll Need That True Religion
TTITLE11=Elder Curry - Memphis Flu
TTITLE12=Bessie Johnson - He Got Better Things For You
TTITLE13=Norfolk Jubilee Quartet - No Hiding Place
TTITLE14=Rev. A. W. Nix - The Black Diamond Express To Hell (I and II)
TTITLE15=Thomas A. Dorsey - If You See My Saviour
TTITLE16=Heavenly Gospel Singers - Precious Lord, Take My Hand
TTITLE17=Heavenly Gospel Singers - The Prodigal Son
EXTD=
EXTT0=
EXTT1=
EXTT2=
EXTT3=
EXTT4=
EXTT5=
EXTT6=
EXTT7=
EXTT8=
EXTT9=
EXTT10=
EXTT11=
EXTT12=
EXTT13=
EXTT14=
EXTT15=
EXTT16=
EXTT17=
PLAYORDER=
